<svg width="30" height="30" viewBox="0 0 30 30" fill="none" xmlns="http://www.w3.org/2000/svg">
<g id="bx:bx-support">
<path id="Vector" d="M14.9121 2.62646C8.10683 2.62646 2.57031 8.16298 2.57031 14.9682V20.0814C2.57031 21.3452 3.67737 22.3733 5.03867 22.3733H6.27284C6.60017 22.3733 6.91409 22.2433 7.14554 22.0118C7.37699 21.7804 7.50702 21.4664 7.50702 21.1391V14.7918C7.50702 14.4644 7.37699 14.1505 7.14554 13.9191C6.91409 13.6876 6.60017 13.5576 6.27284 13.5576H5.15221C5.83841 8.78131 9.94823 5.09482 14.9121 5.09482C19.8759 5.09482 23.9858 8.78131 24.672 13.5576H23.5513C23.224 13.5576 22.9101 13.6876 22.6786 13.9191C22.4472 14.1505 22.3172 14.4644 22.3172 14.7918V22.3733C22.3172 23.7346 21.2101 24.8417 19.8488 24.8417H17.3804V23.6075H12.4437V27.31H19.8488C22.5714 27.31 24.7855 25.0959 24.7855 22.3733C26.1468 22.3733 27.2539 21.3452 27.2539 20.0814V14.9682C27.2539 8.16298 21.7173 2.62646 14.9121 2.62646Z" fill="white"/>
</g>
</svg>
